<svg preserveAspectRatio="none" width="100%" height="100%" overflow="visible" style="display: block;" viewBox="0 0 25.5 26.25" fill="none" xmlns="http://www.w3.org/2000/svg">
<g id="Background">
<rect width="25.5" height="26.25" rx="6" fill="var(--fill-0, #F5F2FE)"/>
<path id="Icon" d="M6 20.25V9.75H10.5V8.25L12.75 6L15 8.25V12.75H19.5V20.25H6V20.25M7.5 18.75H9V17.25H7.5V18.75V18.75M7.5 15.75H9V14.25H7.5V15.75V15.75M7.5 12.75H9V11.25H7.5V12.75V12.75M12 18.75H13.5V17.25H12V18.75V18.75M12 15.75H13.5V14.25H12V15.75V15.75M12 12.75H13.5V11.25H12V12.75V12.75M12 9.75H13.5V8.25H12V9.75V9.75M16.5 18.75H18V17.25H16.5V18.75V18.75M16.5 15.75H18V14.25H16.5V15.75V15.75" fill="var(--fill-0, #64748B)"/>
</g>
</svg>
