<svg preserveAspectRatio="none" width="100%" height="100%" overflow="visible" style="display: block;" viewBox="0 0 17.7114 18.9999" fill="none" xmlns="http://www.w3.org/2000/svg">
<g id="Container">
<path id="Icon" d="M9.32687 18.9999V16.3577L14.7557 10.9538C14.8801 10.8359 15.0143 10.75 15.1585 10.6961C15.3026 10.6423 15.4468 10.6154 15.591 10.6154C15.7482 10.6154 15.9003 10.6448 16.0473 10.7038C16.1942 10.7628 16.3278 10.8512 16.448 10.9692L17.373 11.9038C17.4807 12.0282 17.564 12.1628 17.623 12.3077C17.682 12.4525 17.7114 12.5974 17.7114 12.7423C17.7114 12.8871 17.6845 13.0346 17.6307 13.1846C17.5768 13.3346 17.4909 13.4717 17.373 13.5961L11.9691 18.9999H9.32687V18.9999M16.5192 12.7423V12.7423L15.5942 11.8076V11.8076L16.5192 12.7423V12.7423M10.5192 17.8076H11.4692L14.7153 14.5461L14.2653 14.0612L13.7903 13.6019L10.5192 16.8576V17.8076V17.8076M1.80768 18.9999C1.30255 18.9999 0.874992 18.8249 0.524995 18.4749C0.174998 18.1249 0 17.6974 0 17.1922V1.80768C0 1.30255 0.174998 0.874992 0.524995 0.524995C0.874992 0.174998 1.30255 0 1.80768 0H9.74998L14.9999 5.24995V8.04801H13.5V5.99993H9V1.49996H1.80768C1.73075 1.49996 1.66023 1.53202 1.59612 1.59612C1.53202 1.66023 1.49996 1.73075 1.49996 1.80768V17.1922C1.49996 17.2692 1.53202 17.3397 1.59612 17.4038C1.66023 17.4679 1.73075 17.5 1.80768 17.5H7.13455V18.9999H1.80768V18.9999M8.24994 9.49996V9.49996V9.49996V9.49996V9.49996V9.49996V9.49996V9.49996V9.49996V9.49996V9.49996V9.49996V9.49996V9.49996V9.49996V9.49996V9.49996M14.2653 14.0612L13.7903 13.6019V13.6019L14.7153 14.5461V14.5461L14.2653 14.0612V14.0612" fill="var(--fill-0, #767586)"/>
</g>
</svg>
