<svg preserveAspectRatio="none" width="100%" height="100%" overflow="visible" style="display: block;" viewBox="0 0 18 22" fill="none" xmlns="http://www.w3.org/2000/svg">
<g id="Container">
<path id="Icon" d="M2 22C1.45 22 0.979167 21.8042 0.5875 21.4125C0.195833 21.0208 0 20.55 0 20V6C0 5.45 0.195833 4.97917 0.5875 4.5875C0.979167 4.19583 1.45 4 2 4H16C16.55 4 17.0208 4.19583 17.4125 4.5875C17.8042 4.97917 18 5.45 18 6V20C18 20.55 17.8042 21.0208 17.4125 21.4125C17.0208 21.8042 16.55 22 16 22H2V22M2 20H16V20V20V6V6V6H2V6V6V20V20V20V20" fill="var(--fill-0, #C7C4D7)"/>
</g>
</svg>
