<svg preserveAspectRatio="none" width="100%" height="100%" overflow="visible" style="display: block;" viewBox="0 0 36.6667 26.6667" fill="none" xmlns="http://www.w3.org/2000/svg">
<g id="Container">
<path id="Icon" d="M16.6667 26.6667H9.16667C6.63889 26.6667 4.47917 25.7917 2.6875 24.0417C0.895833 22.2917 0 20.1528 0 17.625C0 15.4583 0.652778 13.5278 1.95833 11.8333C3.26389 10.1389 4.97222 9.05556 7.08333 8.58333C7.77778 6.02778 9.16667 3.95833 11.25 2.375C13.3333 0.791667 15.6944 0 18.3333 0C21.5833 0 24.3403 1.13194 26.6042 3.39583C28.8681 5.65972 30 8.41667 30 11.6667V11.6667V11.6667C31.9167 11.8889 33.5069 12.7153 34.7708 14.1458C36.0347 15.5764 36.6667 17.25 36.6667 19.1667C36.6667 21.25 35.9375 23.0208 34.4792 24.4792C33.0208 25.9375 31.25 26.6667 29.1667 26.6667H20V14.75L22.6667 17.3333L25 15L18.3333 8.33333L11.6667 15L14 17.3333L16.6667 14.75V26.6667V26.6667" fill="var(--fill-0, #4648D4)"/>
</g>
</svg>
