<svg preserveAspectRatio="none" width="100%" height="100%" overflow="visible" style="display: block;" viewBox="0 0 46 42" fill="none" xmlns="http://www.w3.org/2000/svg">
<g id="Background">
<rect width="46" height="42" rx="8" fill="var(--fill-0, #F3E8FF)"/>
<path id="Icon" d="M23 30L16 26.2V20.2L12 18L23 12L34 18V26H32V19.1L30 20.2V26.2L23 30V30M23 21.7L29.85 18L23 14.3L16.15 18L23 21.7V21.7M23 27.725L28 25.025V21.25L23 24L18 21.25V25.025L23 27.725V27.725M23 21.7V21.7V21.7V21.7V21.7V21.7M23 23.95V23.95V23.95V23.95V23.95V23.95V23.95V23.95V23.95V23.95M23 23.95V23.95V23.95V23.95V23.95V23.95V23.95V23.95V23.95V23.95" fill="var(--fill-0, #9333EA)"/>
</g>
</svg>
