<svg preserveAspectRatio="none" width="100%" height="100%" overflow="visible" style="display: block;" viewBox="0 0 17.5 17.5" fill="none" xmlns="http://www.w3.org/2000/svg">
<g id="Container">
<path id="Icon" d="M1.66667 14.1667V14.1667V14.1667V14.1667V5V5V5V5V5V5V14.1667V14.1667V14.1667V14.1667V14.1667C1.66667 13.8889 1.66667 13.7847 1.66667 13.8542C1.66667 13.9236 1.66667 14.0278 1.66667 14.1667V14.1667M1.66667 15.8333C1.20833 15.8333 0.815972 15.6701 0.489583 15.3438C0.163194 15.0174 0 14.625 0 14.1667V5C0 4.54167 0.163194 4.14931 0.489583 3.82292C0.815972 3.49653 1.20833 3.33333 1.66667 3.33333H5V1.66667C5 1.20833 5.16319 0.815972 5.48958 0.489583C5.81597 0.163194 6.20833 0 6.66667 0H10C10.4583 0 10.8507 0.163194 11.1771 0.489583C11.5035 0.815972 11.6667 1.20833 11.6667 1.66667V3.33333H15C15.4583 3.33333 15.8507 3.49653 16.1771 3.82292C16.5035 4.14931 16.6667 4.54167 16.6667 5V8.5625C16.4167 8.38194 16.1528 8.22569 15.875 8.09375C15.5972 7.96181 15.3056 7.84722 15 7.75V5V5V5H1.66667V5V5V14.1667V14.1667V14.1667H7.5625C7.60417 14.4583 7.66667 14.7431 7.75 15.0208C7.83333 15.2986 7.9375 15.5694 8.0625 15.8333H1.66667V15.8333M6.66667 3.33333H10V1.66667V1.66667V1.66667H6.66667V1.66667V1.66667V3.33333V3.33333M13.3333 17.5C12.1806 17.5 11.1979 17.0938 10.3854 16.2812C9.57292 15.4688 9.16667 14.4861 9.16667 13.3333C9.16667 12.1806 9.57292 11.1979 10.3854 10.3854C11.1979 9.57292 12.1806 9.16667 13.3333 9.16667C14.4861 9.16667 15.4688 9.57292 16.2812 10.3854C17.0938 11.1979 17.5 12.1806 17.5 13.3333C17.5 14.4861 17.0938 15.4688 16.2812 16.2812C15.4688 17.0938 14.4861 17.5 13.3333 17.5V17.5M13.75 13.1667V10.8333H12.9167V13.5L14.7083 15.2917L15.2917 14.7083L13.75 13.1667V13.1667" fill="var(--fill-0, #64748B)"/>
</g>
</svg>
