<svg preserveAspectRatio="none" width="100%" height="100%" overflow="visible" style="display: block;" viewBox="0 0 25 26.25" fill="none" xmlns="http://www.w3.org/2000/svg">
<g id="Container">
<path id="Icon" d="M12.2812 26.25C11.7812 26.25 11.3021 26.1562 10.8438 25.9688C10.3854 25.7812 9.97917 25.5104 9.625 25.1562L3.25 18.75L4.1875 17.7812C4.52083 17.4479 4.91146 17.224 5.35938 17.1094C5.80729 16.9948 6.25 17 6.6875 17.125L8.75 17.7188V7.5C8.75 7.14583 8.86979 6.84896 9.10938 6.60938C9.34896 6.36979 9.64583 6.25 10 6.25C10.3542 6.25 10.651 6.36979 10.8906 6.60938C11.1302 6.84896 11.25 7.14583 11.25 7.5V21.0312L8.21875 20.1875L11.4062 23.375C11.5104 23.4792 11.6406 23.5677 11.7969 23.6406C11.9531 23.7135 12.1146 23.75 12.2812 23.75H17.5C18.1875 23.75 18.776 23.5052 19.2656 23.0156C19.7552 22.526 20 21.9375 20 21.25V16.25C20 15.8958 20.1198 15.599 20.3594 15.3594C20.599 15.1198 20.8958 15 21.25 15C21.6042 15 21.901 15.1198 22.1406 15.3594C22.3802 15.599 22.5 15.8958 22.5 16.25V21.25C22.5 22.625 22.0104 23.8021 21.0312 24.7812C20.0521 25.7604 18.875 26.25 17.5 26.25H12.2812V26.25M12.5 17.5V12.5C12.5 12.1458 12.6198 11.849 12.8594 11.6094C13.099 11.3698 13.3958 11.25 13.75 11.25C14.1042 11.25 14.401 11.3698 14.6406 11.6094C14.8802 11.849 15 12.1458 15 12.5V17.5H12.5V17.5M16.25 17.5V13.75C16.25 13.3958 16.3698 13.099 16.6094 12.8594C16.849 12.6198 17.1458 12.5 17.5 12.5C17.8542 12.5 18.151 12.6198 18.3906 12.8594C18.6302 13.099 18.75 13.3958 18.75 13.75V17.5H16.25V17.5M0 7.5C0.625 5.29167 2.10417 3.48958 4.4375 2.09375C6.77083 0.697917 9.45833 0 12.5 0C14.4583 0 16.3438 0.322917 18.1562 0.96875C19.9688 1.61458 21.625 2.55208 23.125 3.78125V1.25H25V7.5H18.75V5.625H22.375C21 4.41667 19.4688 3.48958 17.7812 2.84375C16.0938 2.19792 14.3333 1.875 12.5 1.875C10.0417 1.875 7.86979 2.375 5.98438 3.375C4.09896 4.375 2.76042 5.75 1.96875 7.5H0V7.5M15.625 20V20V20V20V20V20V20V20V20V20V20V20" fill="var(--fill-0, white)"/>
</g>
</svg>
